<svg width="98" height="52" viewBox="0 0 98 52" fill="none" xmlns="http://www.w3.org/2000/svg">
<path d="M25.425 34V17.9H28.825L33.55 27.575L38.275 17.9H41.65V34H38.275V23.525L34.525 31.225H32.575L28.8 23.525V34H25.425ZM48.4424 34V20.5H43.4924V17.9H56.7424V20.5H51.8174V34H48.4424ZM58.6037 34V17.9H61.5287L69.1537 28.625V17.9H72.5287V34H69.6037L61.9787 23.275V34H58.6037Z" fill="black"/>
<path d="M94.0949 25.5C94.0949 31.1101 89.4776 36.5985 81.0744 40.7737C72.7636 44.903 61.1772 47.5 48.2975 47.5C35.4177 47.5 23.8314 44.903 15.5205 40.7737C7.1173 36.5985 2.5 31.1101 2.5 25.5C2.5 19.8899 7.1173 14.4015 15.5205 10.2263C23.8314 6.09705 35.4177 3.5 48.2975 3.5C61.1772 3.5 72.7636 6.09705 81.0744 10.2263C89.4776 14.4015 94.0949 19.8899 94.0949 25.5Z" stroke="black" stroke-width="3"/>
</svg>
