<svg width="20" height="15" viewBox="0 0 20 15" fill="none" xmlns="http://www.w3.org/2000/svg">
<g clip-path="url(#clip0_685_88)">
<path d="M16 3.40553C14.4899 2.02787 12.4687 0.833496 9.99963 0.833496C4.16634 0.833496 0.833008 7.50016 0.833008 7.50016C0.833008 7.50016 2.15916 10.1525 4.60234 12.1112M7.65663 13.798C8.38506 14.031 9.16687 14.1669 9.99963 14.1669C15.833 14.1669 19.1663 7.50016 19.1663 7.50016C19.1663 7.50016 18.75 6.66758 17.9542 5.59087" stroke="#303030" stroke-width="2" stroke-linecap="round" stroke-linejoin="round"/>
<path d="M12.292 6.5C11.9062 5.61705 11.0252 5 10 5C8.61929 5 7.5 6.11929 7.5 7.5C7.5 8.31791 7.89278 9.04408 8.5 9.50018" stroke="#303030" stroke-width="2" stroke-linecap="round" stroke-linejoin="round"/>
<path d="M18.5 1.5L2.5 14" stroke="#303030" stroke-width="2" stroke-linecap="round"/>
</g>
<defs>
<clipPath id="clip0_685_88">
<rect width="20" height="15" fill="white"/>
</clipPath>
</defs>
</svg>
